<svg width="24" height="24" viewBox="0 0 24 24" fill="none" xmlns="http://www.w3.org/2000/svg">
<g id="Group 38">
<g id="Arrow 33">
<path id="Vector" d="M14.0656 12.8315L14.0656 13.85C14.0656 15.1521 13.6089 16.1427 12.7829 16.6345C12.4266 16.8493 12.0302 16.9531 11.6072 16.9531C11.0431 16.9531 10.4249 16.7661 9.80039 16.392L6.69006 14.5427C5.59552 13.8846 4.99062 12.9841 4.99062 12.0004C4.99062 11.0169 5.59552 10.1163 6.69006 9.46528L9.80039 7.61583C10.8945 6.96478 11.9491 6.87463 12.7829 7.3665C13.6089 7.85828 14.0656 8.84879 14.0656 10.1511L14.0656 11.1757M14.0656 13.2408L14.0656 12.0033M14.0656 12.0033L14.0656 10.7658M14.0656 12.0033L19.0156 12.0033" stroke="white" stroke-width="0.685714" stroke-linecap="round"/>
</g>
</g>
</svg>
