<svg width="24" height="24" viewBox="0 0 24 24" fill="none" xmlns="http://www.w3.org/2000/svg">
<path d="M15.0712 4.85199L12.2192 2L9.36719 4.85199H15.0712Z" fill="white"/>
<path d="M19.4404 12.003C19.4404 12.2328 19.3491 12.4532 19.1867 12.6156C19.0242 12.7781 18.8038 12.8694 18.574 12.8694H5.86643C5.63664 12.8694 5.41626 12.7781 5.25377 12.6156C5.09128 12.4532 5 12.2328 5 12.003C5 11.7732 5.09128 11.5528 5.25377 11.3903C5.41626 11.2278 5.63664 11.1366 5.86643 11.1366H18.574C18.8038 11.1366 19.0242 11.2278 19.1867 11.3903C19.3491 11.5528 19.4404 11.7732 19.4404 12.003ZM5.86643 8.24848H18.574C18.8038 8.24848 19.0242 8.15719 19.1867 7.99471C19.3491 7.83222 19.4404 7.61184 19.4404 7.38205C19.4404 7.15226 19.3491 6.93188 19.1867 6.7694C19.0242 6.60691 18.8038 6.51562 18.574 6.51562H5.86643C5.63664 6.51562 5.41626 6.60691 5.25377 6.7694C5.09128 6.93188 5 7.15226 5 7.38205C5 7.61184 5.09128 7.83222 5.25377 7.99471C5.41626 8.15719 5.63664 8.24848 5.86643 8.24848ZM18.574 15.7575H5.86643C5.63664 15.7575 5.41626 15.8488 5.25377 16.0113C5.09128 16.1738 5 16.3941 5 16.6239C5 16.8537 5.09128 17.0741 5.25377 17.2366C5.41626 17.3991 5.63664 17.4904 5.86643 17.4904H18.574C18.8038 17.4904 19.0242 17.3991 19.1867 17.2366C19.3491 17.0741 19.4404 16.8537 19.4404 16.6239C19.4404 16.3941 19.3491 16.1738 19.1867 16.0113C19.0242 15.8488 18.8038 15.7575 18.574 15.7575Z" fill="white"/>
<path d="M15.0712 19.148L12.2192 22L9.36719 19.148H15.0712Z" fill="white"/>
</svg>
